<svg xmlns="http://www.w3.org/2000/svg" viewBox="0 0 64 64" role="img" aria-labelledby="title">
  <title id="title">EduPress</title>
  <defs>
    <linearGradient id="book" x1="8" x2="56" y1="48" y2="48" gradientUnits="userSpaceOnUse">
      <stop stop-color="#ff5a1f"/>
      <stop offset="1" stop-color="#dc2626"/>
    </linearGradient>
    <linearGradient id="flame" x1="24" x2="43" y1="10" y2="38" gradientUnits="userSpaceOnUse">
      <stop stop-color="#ff7a1a"/>
      <stop offset="1" stop-color="#dc2626"/>
    </linearGradient>
  </defs>
  <path fill="url(#book)" d="M8 26c9.9.5 18 4.4 24 11.3C38 30.4 46.1 26.5 56 26v25.5c-9.8.4-17.8 3.7-24 9.8-6.2-6.1-14.2-9.4-24-9.8V26Zm6.2 6.7v13.2c5.4.8 10.1 2.5 14.2 5.2-3.7-9.8-8.6-15.8-14.2-18.4Zm35.6 0c-5.6 2.6-10.5 8.6-14.2 18.4 4.1-2.7 8.8-4.4 14.2-5.2V32.7Z"/>
  <path fill="url(#flame)" d="M31.6 39.2c-5.1-5.2-6.2-11.2-2.9-17.2 2-3.7 6.4-6.7 5.9-13.7 8.1 6.4 9.4 15.1 4.1 23 3.3-1.5 5.6-4.1 6.9-7.6 4.8 7.8 2.8 14.6-4 18.8-2.6-4.7-6-6.2-10-3.3Z"/>
</svg>
